<svg width="25" height="24" viewBox="0 0 25 24" version="1.1" xmlns="http://www.w3.org/2000/svg"><g stroke="none" stroke-width="1" fill="none" fill-rule="evenodd"><path d="M.746 12c0-6.627 5.372-12 12-12 6.626 0 12 5.373 12 12 0 6.628-5.373 12-12 12-6.629 0-12-5.372-12-12" fill="#EE352E"/><path d="M8.97 17.593a5.193 5.193 0 01.51-2.083c.31-.74 1.056-1.532 2.217-2.361 1.043-.746 1.7-1.267 2.006-1.591.481-.511.723-1.08.723-1.694 0-.5-.142-.923-.42-1.26-.287-.34-.696-.511-1.219-.511-.714 0-1.21.273-1.472.813-.14.293-.225.73-.256 1.335H9.095c.044-.896.214-1.632.508-2.19.573-1.09 1.61-1.642 3.08-1.642 1.166 0 2.106.327 2.793.97.684.64 1.032 1.504 1.032 2.564a3.47 3.47 0 01-.73 2.172c-.32.422-.858.9-1.6 1.425l-.892.633c-.562.399-.946.689-1.153.865a2.684 2.684 0 00-.54.642l-.092.15h5.023v1.763H8.97z" fill="#FFF"/></g></svg>