<svg width="25" height="24" viewBox="0 0 25 24" version="1.1" xmlns="http://www.w3.org/2000/svg"><g stroke="none" stroke-width="1" fill="none" fill-rule="evenodd"><path d="M.635 12c0-6.627 5.372-12 12-12 6.627 0 12 5.373 12 12 0 6.628-5.373 12-12 12-6.628 0-12-5.372-12-12" fill="#EE352E"/><path d="M12.608 17.733c-1.558 0-2.652-.513-3.254-1.52-.306-.52-.483-1.206-.528-2.039h1.984c.01.425.087.785.228 1.07.287.582.812.876 1.562.876.462 0 .869-.16 1.21-.476.344-.316.519-.776.519-1.366 0-.786-.325-1.319-.965-1.585-.343-.14-.853-.212-1.56-.218V11.08c.69-.016 1.166-.087 1.454-.219.529-.234.797-.712.797-1.419 0-.456-.135-.833-.404-1.123-.272-.29-.654-.438-1.137-.438-.554 0-.97.182-1.237.54-.244.331-.37.766-.375 1.296H9.029a5.446 5.446 0 01.279-1.469c.174-.423.455-.825.833-1.187a2.887 2.887 0 011.002-.587c.388-.137.873-.206 1.442-.206 1.05 0 1.91.276 2.553.817.637.538.96 1.271.96 2.177 0 .64-.192 1.186-.57 1.622-.237.273-.486.461-.741.558l.036.193c.12 0 .358.087.807.498.543.505.82 1.205.82 2.082 0 .928-.326 1.756-.97 2.46-.64.702-1.606 1.058-2.872 1.058" fill="#FFF"/></g></svg>