<svg width="25" height="25" viewBox="0 0 25 25" version="1.1" xmlns="http://www.w3.org/2000/svg"><g stroke="none" stroke-width="1" fill="none" fill-rule="evenodd"><path d="M.44 12.632c0-6.627 5.374-12 12-12 6.629 0 12 5.373 12 12 0 6.628-5.371 12-12 12-6.626 0-12-5.372-12-12" fill="#00933C"/><path d="M12.336 18.271c-1.049 0-1.92-.284-2.589-.845-.644-.536-1.017-1.304-1.11-2.283h2.027c.095.463.27.83.517 1.09.267.282.66.425 1.163.425.582 0 1.032-.209 1.34-.622.3-.405.451-.917.451-1.525 0-.595-.142-1.107-.422-1.52-.289-.425-.742-.641-1.346-.641-.279 0-.525.034-.733.107a1.486 1.486 0 00-.813.686l-1.825-.086.77-6.063h6.045v1.691H11.2l-.456 2.784.191-.123c.335-.22.598-.366.783-.435.31-.117.694-.175 1.143-.175.907 0 1.708.31 2.382.92.673.607 1.014 1.508 1.014 2.676 0 1.018-.332 1.94-.984 2.741-.648.796-1.636 1.198-2.936 1.198" fill="#FFF"/></g></svg>