<?xml version="1.0" encoding="UTF-8" standalone="no"?>
<svg width="25px" height="25px" viewBox="0 0 25 25" version="1.1" xmlns="http://www.w3.org/2000/svg" xmlns:xlink="http://www.w3.org/1999/xlink">
    <!-- Generator: Sketch 47 (45396) - http://www.bohemiancoding.com/sketch -->
    <title>M</title>
    <desc>Created with Sketch.</desc>
    <defs></defs>
    <g id="Page-1" stroke="none" stroke-width="1" fill="none" fill-rule="evenodd">
        <g id="Modes-of-transport-and-lines" transform="translate(-253.000000, -1026.000000)">
            <g id="M" transform="translate(253.000000, 1026.000000)">
                <path d="M0.0736,12.7051 C0.0736,6.0771 5.4466,0.7051 12.0736,0.7051 C18.7016,0.7051 24.0736,6.0771 24.0736,12.7051 C24.0736,19.3321 18.7016,24.7051 12.0736,24.7051 C5.4466,24.7051 0.0736,19.3321 0.0736,12.7051" id="Fill-77" fill="#FF6319"></path>
                <path d="M16.0346,18.6436 L16.0346,11.6696 C16.0346,11.4346 16.0396,11.0456 16.0506,10.5016 C16.0546,10.3376 16.0556,10.1706 16.0586,9.9996 L13.1336,18.6436 L11.3056,18.6436 L8.3546,10.0066 C8.3576,10.1276 8.3606,10.2566 8.3646,10.3946 C8.3806,10.9726 8.3886,11.3986 8.3886,11.6696 L8.3886,18.6436 L6.5036,18.6436 L6.5036,6.7666 L9.0746,6.7666 L12.2296,16.0466 L15.3636,6.7666 L17.9196,6.7666 L17.9196,18.6436 L16.0346,18.6436 Z" id="Fill-79" fill="#FFFFFF"></path>
            </g>
        </g>
    </g>
</svg>